<?xml version="1.0" encoding="UTF-8"?>
<!DOCTYPE svg PUBLIC "-//W3C//DTD SVG 1.1//EN" "http://www.w3.org/Graphics/SVG/1.1/DTD/svg11.dtd">
<!-- Creator: CorelDRAW 2020 (64-Bit Not for commercial use) -->
<svg xmlns="http://www.w3.org/2000/svg" xml:space="preserve" width="1.79413in" height="1.52441in" version="1.1" style="shape-rendering:geometricPrecision; text-rendering:geometricPrecision; image-rendering:optimizeQuality; fill-rule:evenodd; clip-rule:evenodd"
viewBox="0 0 447.48 380.21"
 xmlns:xlink="http://www.w3.org/1999/xlink"
 xmlns:xodm="http://www.corel.com/coreldraw/odm/2003">
 <defs>
  <style type="text/css">
   <![CDATA[
    .fil0 {fill:#3838EC}
   ]]>
  </style>
 </defs>
 <g id="Layer_x0020_1">
  <metadata id="CorelCorpID_0Corel-Layer"/>
  <path class="fil0" d="M0.08 138.9c8.08,7.5 39.17,4.04 49.85,4.04 18.76,0 37.52,0.03 56.28,-0.01l4.21 7.18c0.17,0.27 0.52,0.89 0.85,1.29 0.07,-22.82 13.12,-37.78 35.95,-39.16 24.21,-1.47 53.3,-0.06 78.05,-0.06 45.31,0 118.4,-13.83 110.29,43.86 3.75,-6.02 2.47,-9.26 2.06,-17.66l3.03 3.83c2.73,2.83 -1.28,3.57 0.85,0.35l98.08 0c6.09,-2.23 0.57,1.26 3.37,-4.26l2.03 -4.97c0.24,-0.53 0.63,-1.31 0.83,-1.75 0.2,-0.45 0.45,-1.26 0.88,-1.76 -8.24,-52.88 -37.56,-87.74 -70.28,-107.45 -47.8,-28.79 -97.21,-21.55 -157.62,-21.55 -59.84,0 -108.07,-5.08 -152.69,24.35 -31.16,20.55 -61.92,58.41 -66.01,113.74zm23.64 88.67c23.68,-6.3 144.52,-2.2 179.9,-2.2 7,1.37 1.93,-2.5 5.71,4.71 7.05,-5.43 8.14,-11.21 14.18,-21.54 4.14,-7.08 10.87,-16.99 12.76,-23.81 -26.04,0.04 -52.08,0.03 -78.12,0.06 -26.65,0.03 -43.14,-8.38 -46.87,-33.39 -0.33,-0.4 -0.68,-1.01 -0.85,-1.29l-4.21 -7.18c-18.76,0.04 -37.52,0.01 -56.28,0.01 -10.68,0 -41.78,3.45 -49.85,-4.04 -1.01,28.8 7.16,72.54 23.64,88.67zm0 0c13.26,30.23 59.33,58.27 94.98,65.73 12.08,2.53 22.74,2.53 35.15,2.68 20.14,0.25 18.72,1.97 26.98,-13.25 5.64,-10.4 27.24,-44.35 28.5,-52.65 -3.78,-7.21 1.29,-3.34 -5.71,-4.71 -35.38,0 -156.22,-4.1 -179.9,2.2zm238 60.7c9.26,2.21 50.65,1.63 65.33,1.32 16.5,-0.35 17.86,-0.65 20.11,5.81 14.75,-11.1 36.21,-23.23 48.1,-34.16 8.68,-7.98 33.06,-32.45 34.82,-46.6 -5.96,-3.73 2.83,-0.05 -3.57,-1.24 -3.12,-0.58 -2.76,-0.43 -6.36,-0.6 -25.97,-1.22 -99.64,4.05 -113.35,-2.56l-45.07 78.04zm73.83 -132.25c-4.86,17.14 -20.77,37.42 -28.76,54.21 13.72,6.61 87.39,1.34 113.35,2.56 3.61,0.17 3.25,0.02 6.36,0.6 6.4,1.2 -2.39,-2.48 3.57,1.24 4.59,-4.1 2.68,-1.79 5.81,-8.16 1.59,-3.24 2.62,-6.35 3.63,-9.24 8.5,-24.42 8.82,-41.25 7.17,-67.44 -0.43,0.5 -0.67,1.31 -0.88,1.76 -0.2,0.44 -0.59,1.22 -0.83,1.75l-2.03 4.97c-2.8,5.52 2.72,2.02 -3.37,4.26l-98.08 0c-2.13,3.22 1.88,2.47 -0.85,-0.35l-3.03 -3.83c0.42,8.4 1.7,11.64 -2.06,17.66zm11.61 139.38c-2.25,-6.46 -3.62,-6.15 -20.11,-5.81 -14.69,0.31 -56.07,0.89 -65.33,-1.32 -9,12.64 -47.87,76.96 -46.89,88.67 10.47,6.81 12.55,3.03 33.07,-11.96l99.27 -69.59z"/>
 </g>
</svg>
